<svg width="51" height="80" viewBox="1542 0 1 80" fill="none" xmlns="http://www.w3.org/2000/svg">
<rect width="4" height="80" fill="#131111"/>

<rect x="1517.5" y="15.5" width="49" height="49" rx="24.5" stroke="#F5F5F5"/>
<path fill-rule="evenodd" clip-rule="evenodd" d="M1538 50C1539.1 50 1540 49.1046 1540 48C1540 46.8954 1539.1 46 1538 46C1536.9 46 1536 46.8954 1536 48C1536 49.1046 1536.9 50 1538 50Z" stroke="#F5F5F5" stroke-linecap="round" stroke-linejoin="round"/>
<path fill-rule="evenodd" clip-rule="evenodd" d="M1548 50C1549.1 50 1550 49.1046 1550 48C1550 46.8954 1549.1 46 1548 46C1546.9 46 1546 46.8954 1546 48C1546 49.1046 1546.9 50 1548 50Z" stroke="#F5F5F5" stroke-linecap="round" stroke-linejoin="round"/>
<path d="M1535.25 34.3332H1551L1549.47 41.6044C1549.3 42.4279 1548.54 43.0158 1547.65 42.9997H1538.05C1537.13 43.0071 1536.35 42.3601 1536.23 41.4917L1534.85 31.508C1534.73 30.6462 1533.96 30.0013 1533.05 30H1531" stroke="#F5F5F5" stroke-linecap="round" stroke-linejoin="round"/>
</svg>
