<svg width="61" height="60" viewBox="0 162 61 1" fill="none" xmlns="http://www.w3.org/2000/svg">
<path d="M33.1364 136.657L36.1981 140.392C37.4898 141.968 39.4073 142.895 41.4415 142.926L46.2612 142.998C50.0401 143.055 52.8298 146.562 52.0434 150.275L51.0415 155.006C50.619 157.001 51.0922 159.082 52.336 160.696L55.2844 164.522C57.5983 167.524 56.6021 171.899 53.2207 173.596L48.9097 175.76C47.0905 176.673 45.7641 178.342 45.282 180.324L44.1388 185.022C43.2417 188.709 39.2133 190.653 35.784 189.06L31.4101 187.027C29.5643 186.169 27.4357 186.169 25.5899 187.027L21.216 189.06C17.7867 190.653 13.7583 188.709 12.8612 185.022L11.718 180.324C11.2359 178.342 9.90948 176.673 8.09028 175.76L3.77931 173.596C0.397881 171.899 -0.598314 167.524 1.71559 164.522L4.66397 160.696C5.90776 159.082 6.38102 157.001 5.95849 155.006L4.95665 150.275C4.17021 146.562 6.95991 143.055 10.7388 142.998L15.5585 142.926C17.5927 142.895 19.5102 141.968 20.8019 140.392L23.8635 136.657C26.2651 133.727 30.7349 133.727 33.1364 136.657Z" stroke="#F64F00" stroke-width="0.919355"/>
<path d="M19.7413 160.423L19.7476 160.427L19.754 160.43C20.6048 160.869 21.5407 161.086 22.5534 161.086C23.566 161.086 24.4937 160.869 25.3265 160.428L25.3265 160.428L25.3303 160.426C26.1718 159.97 26.8469 159.366 27.3439 158.612L27.3439 158.612L27.3472 158.607C27.8471 157.827 28.0978 156.965 28.0978 156.032C28.0978 155.098 27.847 154.244 27.3439 153.482C26.8468 152.728 26.171 152.134 25.3285 151.697C24.4958 151.235 23.5672 151.008 22.5534 151.008C21.5377 151.008 20.5995 151.236 19.7477 151.697C18.9238 152.135 18.2591 152.73 17.763 153.482C17.2599 154.244 17.0091 155.098 17.0091 156.032C17.0091 156.965 17.2598 157.827 17.7597 158.607L17.7597 158.607L17.763 158.612C18.2581 159.363 18.9206 159.966 19.7413 160.423ZM18.8786 171.508L18.5788 171.852L18.9211 172.154L20.7701 173.786L21.1346 174.108L21.4354 173.726L29.6879 163.246L38.1249 153.461L38.424 153.114L38.0781 152.813L36.1983 151.181L35.8313 150.863L35.5336 151.247L27.5294 161.573L18.8786 171.508ZM31.6672 173.329L31.6672 173.33L31.6755 173.334C32.5083 173.775 33.436 173.992 34.4486 173.992C35.4611 173.992 36.3888 173.775 37.2216 173.334L37.2217 173.334L37.2254 173.332C38.0669 172.876 38.742 172.272 39.239 171.519C39.7421 170.756 39.9929 169.902 39.9929 168.968C39.9929 168.036 39.7427 167.183 39.2407 166.421C38.7443 165.647 38.0685 165.041 37.2236 164.604C36.3909 164.141 35.4624 163.914 34.4486 163.914C33.4339 163.914 32.5046 164.142 31.6714 164.605C30.847 165.043 30.1744 165.647 29.6599 166.415L29.6581 166.418C29.155 167.181 28.9042 168.035 28.9042 168.968C28.9042 169.902 29.155 170.756 29.6581 171.519L29.658 171.519L29.6634 171.526C30.1779 172.272 30.8482 172.874 31.6672 173.329ZM35.6402 170.453L35.6401 170.452L35.6332 170.461C35.3041 170.864 34.9183 171.048 34.4486 171.048C34.0032 171.048 33.6121 170.867 33.2569 170.453C32.8993 170.035 32.7203 169.548 32.7203 168.968C32.7203 168.389 32.8993 167.901 33.2569 167.484L33.2569 167.484L33.2626 167.477C33.6204 167.043 34.0103 166.859 34.4486 166.859C34.8939 166.859 35.285 167.039 35.6402 167.454C35.9956 167.869 36.1768 168.365 36.1768 168.968C36.1768 169.548 35.9978 170.035 35.6402 170.453ZM23.7423 157.55C23.3878 157.962 22.9976 158.141 22.5534 158.141C22.1081 158.141 21.717 157.961 21.3618 157.546C21.0064 157.131 20.8252 156.635 20.8252 156.032C20.8252 155.452 21.0042 154.965 21.3618 154.548C21.717 154.133 22.1081 153.953 22.5534 153.953C22.9988 153.953 23.3899 154.133 23.7451 154.548C24.1027 154.965 24.2817 155.452 24.2817 156.032C24.2817 156.61 24.1033 157.11 23.7423 157.55Z" stroke="#F64F00" stroke-width="0.919355"/>
</svg>
